<svg width="77" height="145" viewBox="0 0 77 145" fill="none" xmlns="http://www.w3.org/2000/svg">
<path d="M0 0H77V137C77 137 61 154 38.5 137C16 120 0 137 0 137V0Z" fill="#02714C"/>
<path d="M13.1617 28.5232H65.5951C65.8907 28.5601 66.0385 28.7079 66.0385 28.9666V33.955C66.0385 34.2506 65.8907 34.3984 65.5951 34.3984H45.8633V34.8418C48.6715 36.3568 50.8516 39.4607 52.4036 44.1534L52.6253 45.7608H65.5951C65.8907 45.7978 66.0385 45.9456 66.0385 46.2042V51.1926C66.0385 51.4882 65.8907 51.636 65.5951 51.636H53.1241C53.1241 57.2156 49.7062 62.6474 42.8702 67.9314C36.8103 71.4048 32.5055 73.1415 29.9559 73.1415C29.9559 73.2893 29.8081 73.3632 29.5125 73.3632L57.6691 109.834V110.277H46.9718C46.8609 110.277 35.9789 96.1619 14.3256 67.9314V67.7097H17.7066C29.6787 67.7097 36.8657 63.4049 39.2675 54.7953C39.4153 53.7607 39.4892 52.9293 39.4892 52.3011V51.636H13.1617C12.8661 51.636 12.7183 51.4882 12.7183 51.1926V46.2042C12.7552 45.9086 12.903 45.7608 13.1617 45.7608H39.2675C38.3807 42.3983 36.4962 39.6639 33.614 37.5577C29.6233 35.4515 25.9837 34.3984 22.695 34.3984H13.1617C12.8661 34.3984 12.7183 34.2506 12.7183 33.955V28.9666C12.7552 28.671 12.903 28.5232 13.1617 28.5232Z" fill="white"/>
</svg>
