<svg width="222" height="51" viewBox="0 0 222 51" fill="none" xmlns="http://www.w3.org/2000/svg">
<path d="M15.8925 25.7887C14.1753 27.4897 12.0855 28.3402 9.62301 28.3402C7.16056 28.3402 5.07071 27.4897 3.35347 25.7887C1.65244 24.0714 0.801917 21.9735 0.801917 19.4948C0.801917 17.0162 1.65244 14.9263 3.35347 13.2253C5.07071 11.508 7.16056 10.6494 9.62301 10.6494C12.0855 10.6494 14.1753 11.508 15.8925 13.2253C17.6098 14.9263 18.4684 17.0162 18.4684 19.4948C18.4684 21.9735 17.6098 24.0714 15.8925 25.7887ZM5.71062 23.5044C6.76365 24.5412 8.06777 25.0596 9.62301 25.0596C11.1782 25.0596 12.4824 24.5412 13.5354 23.5044C14.5884 22.4514 15.1149 21.1149 15.1149 19.4948C15.1149 17.8748 14.5884 16.5383 13.5354 15.4852C12.4824 14.4322 11.1782 13.9057 9.62301 13.9057C8.06777 13.9057 6.76365 14.4322 5.71062 15.4852C4.6576 16.5383 4.13109 17.8748 4.13109 19.4948C4.13109 21.1149 4.6576 22.4514 5.71062 23.5044ZM30.1568 28L26.7304 22.095H24.1788V28H20.8254V10.9896H27.6295C29.2009 10.9896 30.5375 11.5404 31.6391 12.6421C32.7407 13.7437 33.2915 15.0721 33.2915 16.6274C33.2915 17.6804 32.9918 18.6605 32.3924 19.5677C31.793 20.4587 30.9992 21.1311 30.011 21.5847L33.7775 28H30.1568ZM24.1788 14.1244V19.1546H27.6295C28.2613 19.1546 28.804 18.9116 29.2576 18.4256C29.7113 17.9234 29.9381 17.324 29.9381 16.6274C29.9381 15.9307 29.7113 15.3394 29.2576 14.8534C28.804 14.3674 28.2613 14.1244 27.6295 14.1244H24.1788ZM42.5077 10.9896C44.8405 10.9896 46.7846 11.8077 48.3398 13.444C49.9113 15.0802 50.697 17.0972 50.697 19.4948C50.697 21.8925 49.9113 23.9094 48.3398 25.5456C46.7846 27.1819 44.8405 28 42.5077 28H35.7521V10.9896H42.5077ZM42.5077 24.7923C43.9819 24.7923 45.1808 24.3063 46.1042 23.3343C47.0276 22.3461 47.4893 21.0662 47.4893 19.4948C47.4893 17.9234 47.0276 16.6517 46.1042 15.6796C45.1808 14.6914 43.9819 14.1973 42.5077 14.1973H39.1056V24.7923H42.5077ZM56.4292 24.7923H63.5979V28H53.0758V10.9896H63.4764V14.1973H56.4292V17.8181H62.8689V20.9771H56.4292V24.7923ZM75.2931 28L71.8667 22.095H69.3152V28H65.9617V10.9896H72.7658C74.3373 10.9896 75.6738 11.5404 76.7754 12.6421C77.877 13.7437 78.4279 15.0721 78.4279 16.6274C78.4279 17.6804 78.1282 18.6605 77.5287 19.5677C76.9293 20.4587 76.1355 21.1311 75.1473 21.5847L78.9139 28H75.2931ZM69.3152 14.1244V19.1546H72.7658C73.3977 19.1546 73.9404 18.9116 74.394 18.4256C74.8476 17.9234 75.0744 17.324 75.0744 16.6274C75.0744 15.9307 74.8476 15.3394 74.394 14.8534C73.9404 14.3674 73.3977 14.1244 72.7658 14.1244H69.3152ZM96.8053 10.9896H100.159V28H97.6072L90.3171 17.5994V28H86.9636V10.9896H89.5152L96.8053 21.366V10.9896ZM117.627 25.7887C115.91 27.4897 113.82 28.3402 111.358 28.3402C108.895 28.3402 106.805 27.4897 105.088 25.7887C103.387 24.0714 102.537 21.9735 102.537 19.4948C102.537 17.0162 103.387 14.9263 105.088 13.2253C106.805 11.508 108.895 10.6494 111.358 10.6494C113.82 10.6494 115.91 11.508 117.627 13.2253C119.345 14.9263 120.203 17.0162 120.203 19.4948C120.203 21.9735 119.345 24.0714 117.627 25.7887ZM107.445 23.5044C108.498 24.5412 109.802 25.0596 111.358 25.0596C112.913 25.0596 114.217 24.5412 115.27 23.5044C116.323 22.4514 116.85 21.1149 116.85 19.4948C116.85 17.8748 116.323 16.5383 115.27 15.4852C114.217 14.4322 112.913 13.9057 111.358 13.9057C109.802 13.9057 108.498 14.4322 107.445 15.4852C106.392 16.5383 105.866 17.8748 105.866 19.4948C105.866 21.1149 106.392 22.4514 107.445 23.5044ZM125.349 28L120.586 10.9896H124.109L127.366 23.6016L130.913 10.9896H133.781L137.353 23.6016L140.609 10.9896H144.133L139.37 28H135.555L132.347 16.7732L129.164 28H125.349Z" fill="white"/>
<g filter="url(#filter0_d_107_370)">
<rect x="159.567" y="6.20996" width="55.6887" height="30" rx="15" fill="white"/>
</g>
<path d="M178.567 20.21C178.015 20.21 177.567 20.6577 177.567 21.21C177.567 21.7623 178.015 22.21 178.567 22.21L178.567 20.21ZM197.499 21.9171C197.89 21.5266 197.89 20.8934 197.499 20.5029L191.136 14.139C190.745 13.7484 190.112 13.7484 189.721 14.139C189.331 14.5295 189.331 15.1626 189.721 15.5532L195.378 21.21L189.721 26.8669C189.331 27.2574 189.331 27.8906 189.721 28.2811C190.112 28.6716 190.745 28.6716 191.136 28.2811L197.499 21.9171ZM178.567 22.21L196.792 22.21L196.792 20.21L178.567 20.21L178.567 22.21Z" fill="#1D1D1B"/>
<defs>
<filter id="filter0_d_107_370" x="145.567" y="0.209961" width="75.6887" height="50" filterUnits="userSpaceOnUse" color-interpolation-filters="sRGB">
<feFlood flood-opacity="0" result="BackgroundImageFix"/>
<feColorMatrix in="SourceAlpha" type="matrix" values="0 0 0 0 0 0 0 0 0 0 0 0 0 0 0 0 0 0 127 0" result="hardAlpha"/>
<feOffset dx="-4" dy="4"/>
<feGaussianBlur stdDeviation="5"/>
<feComposite in2="hardAlpha" operator="out"/>
<feColorMatrix type="matrix" values="0 0 0 0 0 0 0 0 0 0 0 0 0 0 0 0 0 0 0.1 0"/>
<feBlend mode="normal" in2="BackgroundImageFix" result="effect1_dropShadow_107_370"/>
<feBlend mode="normal" in="SourceGraphic" in2="effect1_dropShadow_107_370" result="shape"/>
</filter>
</defs>
</svg>
