<svg width="215" height="31" viewBox="0 0 215 31" fill="none" xmlns="http://www.w3.org/2000/svg">
<rect x="159.005" width="55.192" height="30" rx="15" fill="#1D1D1B"/>
<path d="M178.072 14.25C177.657 14.25 177.322 14.5858 177.322 15C177.322 15.4142 177.657 15.75 178.072 15.75L178.072 14.25ZM196.665 15.5303C196.958 15.2374 196.958 14.7626 196.665 14.4697L191.892 9.6967C191.599 9.40381 191.124 9.40381 190.831 9.6967C190.538 9.98959 190.538 10.4645 190.831 10.7574L195.074 15L190.831 19.2426C190.538 19.5355 190.538 20.0104 190.831 20.3033C191.124 20.5962 191.599 20.5962 191.892 20.3033L196.665 15.5303ZM178.072 15.75L196.134 15.75L196.134 14.25L178.072 14.25L178.072 15.75Z" fill="white"/>
</svg>
