<svg width="94" height="94" viewBox="0 0 94 94" fill="none" xmlns="http://www.w3.org/2000/svg">
<g filter="url(#filter0_d_206_331)">
<rect x="9" width="85" height="85" rx="20.9877" fill="#1D1D1B"/>
</g>
<path d="M59.8861 22H60.4675C62.3831 22 63.9357 23.9156 63.9357 25.4682V52.6513C63.9357 54.5669 62.3827 56.1194 60.4675 56.1194H59.8861C57.9705 56.1194 56.418 54.2039 56.418 52.6513V25.4682C56.418 23.5526 57.9709 22 59.8861 22Z" fill="white"/>
<path d="M76.6077 38.4148H71.1843C70.8279 38.4148 70.5383 38.7043 70.5383 39.0608C70.5383 39.4172 70.8279 39.7067 71.1843 39.7067H76.6077C76.9642 39.7067 77.2537 39.4172 77.2537 39.0608C77.2537 38.7043 76.9642 38.4148 76.6077 38.4148Z" fill="white"/>
<path d="M72.4352 48.3496C72.1829 48.0974 71.7738 48.0974 71.5212 48.3496C71.269 48.6019 71.269 49.011 71.5212 49.2636L75.3566 53.099C75.4824 53.2247 75.6477 53.2886 75.813 53.2886C75.9784 53.2886 76.1437 53.2255 76.2694 53.099C76.5217 52.8468 76.5217 52.4377 76.2694 52.1851L72.434 48.3496H72.4352Z" fill="white"/>
<path d="M71.9785 29.9595C72.1439 29.9595 72.3092 29.8965 72.4349 29.77L76.2704 25.9346C76.5226 25.6823 76.5226 25.2732 76.2704 25.0206C76.0181 24.7684 75.609 24.7684 75.3564 25.0206L71.521 28.856C71.2687 29.1083 71.2687 29.5174 71.521 29.77C71.6467 29.8957 71.812 29.9595 71.9774 29.9595H71.9785Z" fill="white"/>
<path d="M29.3743 54.665C29.3743 59.2117 33.0736 62.911 37.6203 62.911C37.9767 62.911 38.2663 62.6215 38.2663 62.265V49.9698C34.8219 49.926 31.7997 49.0251 29.3743 47.3283L29.3743 54.665Z" fill="white"/>
<path d="M39.6759 52.4335H39.5579V53.7255H39.6759C41.7507 53.7255 43.4844 52.2905 43.972 50.3649C43.549 50.3064 43.1115 50.258 42.6732 50.2107C42.2725 51.493 41.0882 52.4335 39.676 52.4335L39.6759 52.4335Z" fill="white"/>
<path d="M39.8995 29.4062C39.4466 29.4216 38.9883 29.4305 38.5241 29.4305C34.1669 29.4305 30.6849 30.812 28.1749 33.5362C25.275 36.6848 25.275 41.4334 28.1749 44.5823C30.6846 47.3073 34.167 48.6888 38.5241 48.6888C38.9882 48.6888 39.4466 48.6972 39.8995 48.7138V29.4062Z" fill="white"/>
<path d="M41.1909 48.7798C47.6248 49.207 52.678 51.0707 55.125 52.1473V25.9741C52.68 27.0515 47.6318 28.9136 41.1909 29.3408V48.7812V48.7798Z" fill="white"/>
<defs>
<filter id="filter0_d_206_331" x="0.604939" y="0" width="93.3951" height="93.3951" filterUnits="userSpaceOnUse" color-interpolation-filters="sRGB">
<feFlood flood-opacity="0" result="BackgroundImageFix"/>
<feColorMatrix in="SourceAlpha" type="matrix" values="0 0 0 0 0 0 0 0 0 0 0 0 0 0 0 0 0 0 127 0" result="hardAlpha"/>
<feOffset dx="-4.19753" dy="4.19753"/>
<feGaussianBlur stdDeviation="2.09877"/>
<feComposite in2="hardAlpha" operator="out"/>
<feColorMatrix type="matrix" values="0 0 0 0 0 0 0 0 0 0 0 0 0 0 0 0 0 0 0.15 0"/>
<feBlend mode="normal" in2="BackgroundImageFix" result="effect1_dropShadow_206_331"/>
<feBlend mode="normal" in="SourceGraphic" in2="effect1_dropShadow_206_331" result="shape"/>
</filter>
</defs>
</svg>
