<svg width="94" height="94" viewBox="0 0 94 94" fill="none" xmlns="http://www.w3.org/2000/svg">
<g filter="url(#filter0_d_206_344)">
<rect x="9" width="85" height="85" rx="20.9877" fill="#1D1D1B"/>
</g>
<path d="M25.8209 56.8103H27.9497C27.8611 55.7456 27.9497 56.1895 27.8611 54.9477L25.8208 54.9473L25.8209 56.8103Z" fill="white"/>
<path d="M29.6345 54.9474C29.6345 56.012 29.5459 56.544 29.8118 57.3424C30.6101 59.3827 33.2711 59.9147 34.7792 58.318C35.0455 58.0518 35.3113 57.9631 35.6662 58.0518C36.3759 58.229 36.5532 58.1404 36.6418 58.1404C38.682 58.1404 40.1898 57.7855 40.4559 56.2778C39.9238 55.8344 39.5689 55.4795 39.3027 54.9473L29.6345 54.9474Z" fill="white"/>
<path d="M48.2625 56.6326C49.5044 55.8342 49.5044 58.1407 51.8994 58.1407C52.6092 58.1407 53.0526 57.6972 53.5848 58.2293C55.4473 60.2696 58.8184 58.8501 58.8184 56.1891V54.8586H41.6985C42.3192 55.3021 43.3838 55.9232 45.3354 56.6326C45.5126 56.8102 46.6659 57.6082 48.2622 56.6326L48.2625 56.6326Z" fill="white"/>
<path d="M25.8209 53.1733H62.6324C62.1889 46.6981 56.778 41.5533 50.1249 41.5533H38.2384C31.6747 41.5533 26.2641 46.698 25.8198 53.1733H25.8209ZM34.6024 49.4477C33.8041 50.246 32.4736 49.0042 33.3606 48.2058C33.7155 47.9395 34.6024 46.4318 35.4894 47.3188C35.9329 47.6737 34.8683 49.0928 34.6024 49.4476L34.6024 49.4477ZM53.8508 46.2542C54.2057 45.8993 54.7378 45.8993 55.0927 46.2542C55.9797 47.1412 54.472 48.0282 54.2057 48.383C53.8508 48.7379 53.3187 48.7379 52.9638 48.383C52.0765 47.496 53.5846 46.609 53.8508 46.2542ZM45.3351 46.8753C45.69 46.5205 46.2221 46.5205 46.577 46.8753C47.4639 47.7623 45.9562 48.6493 45.69 49.0041C45.5128 49.1814 45.2465 49.2704 45.0693 49.2704C44.803 49.2704 44.6258 49.1818 44.4485 49.0041C43.4725 48.1172 45.0693 47.2302 45.3351 46.8753H45.3351ZM39.6583 43.5932C40.4567 42.7949 41.7871 44.0367 40.9002 44.8351C40.3681 45.3672 39.5697 46.5204 38.7714 45.7221C37.7954 44.9237 39.3921 44.0367 39.6584 43.5933L39.6583 43.5932Z" fill="white"/>
<path d="M60.5914 56.8102H62.7202V54.9477H60.6799C60.5913 56.1891 60.6799 55.657 60.5913 56.8102H60.5914Z" fill="white"/>
<path d="M60.4149 69.8498C61.9231 69.8498 63.0759 68.6966 63.0759 67.1889V64.9714L26.1765 64.971V67.1885C26.1765 68.6966 27.3297 69.8494 28.8374 69.8494L60.4149 69.8498Z" fill="white"/>
<path d="M23.692 60.8907C23.692 62.1325 24.7566 63.1971 25.9984 63.1971C64.8506 62.9308 63.6975 63.8178 64.9384 62.4873C66.3575 61.0683 65.3819 58.5846 63.3417 58.5846H60.0596C58.6405 61.1568 55.0922 61.8667 52.7862 59.9151C51.1895 60.1813 49.5927 59.6488 48.5285 58.496C46.5769 59.2944 44.8915 58.6732 42.1419 57.2542C41.255 59.6492 37.8842 60.27 35.7554 59.8264C33.449 61.778 29.9011 61.1569 28.482 58.4959C26.5304 58.5845 25.3776 58.141 24.3129 59.2057C23.8686 59.6487 23.6914 60.2699 23.6914 60.8906L23.692 60.8907Z" fill="white"/>
<path d="M52.5203 15.7407H55.004V24.1674H52.5203V15.7407Z" fill="white"/>
<path d="M59.1727 20.0875H56.689V24.1679C57.6646 24.1679 58.4629 24.5228 59.1727 25.1435V20.0875Z" fill="white"/>
<path d="M63.3421 15.7407H60.8584V28.6026C61.0356 28.7798 61.2133 28.9575 61.4791 29.0461C62.0112 29.401 62.6323 29.6668 63.3417 29.7558L63.3421 15.7407Z" fill="white"/>
<path d="M67.6002 28.0703V20.0871H65.1165V29.6671C65.7372 29.4898 66.3583 29.2236 66.8018 28.8687C67.1567 28.6911 67.4225 28.4252 67.6001 28.0703L67.6002 28.0703Z" fill="white"/>
<path d="M71.7679 24.2567V15.741H69.3728V24.8775C69.9935 24.434 70.7033 24.2567 71.4131 24.2567L71.7679 24.2567Z" fill="white"/>
<path d="M73.5427 20.0875H76.0264V24.1679H73.5427V20.0875Z" fill="white"/>
<path d="M48.0851 26.2964C47.9079 26.4736 47.8188 26.7399 47.8188 27.0061L48.3509 32.9492H53.4956C54.0277 32.9492 54.3826 33.3927 54.3826 33.8362C54.3826 34.3683 54.0277 34.7231 53.4956 34.7231H48.5281L48.9716 39.8678H50.1248C57.5759 39.8678 63.7854 45.7222 64.4064 53.0851V53.44V56.988C66.0917 57.5201 67.3336 59.0282 67.3336 60.8907H72.8331C74.6956 60.8907 76.2924 59.4717 76.381 57.6086L76.9131 51.9314H71.9457C70.7925 51.9314 70.7925 50.1574 71.9457 50.1574L77.1801 50.1579L78.5992 34.6354H73.6318C73.1883 34.6354 72.7448 34.2805 72.7448 33.7484C72.7448 33.3049 73.1883 32.8614 73.6318 32.8614H78.7764L79.3085 26.9184C79.3085 26.6521 79.2199 26.3863 79.0422 26.2086C78.865 26.0314 78.5988 25.9424 78.4215 25.9424H71.5025C70.6155 25.9424 69.9058 26.5631 69.7285 27.4505C69.5513 28.5152 68.9301 29.4908 67.9545 30.289C66.9789 31.0874 65.6481 31.5309 64.2289 31.5309H64.0517C62.7212 31.5309 61.568 31.176 60.5037 30.4662C59.3505 29.6679 58.6412 28.6037 58.3749 27.4504C58.2863 26.5634 57.4879 25.9423 56.6009 25.9423H48.6178C48.5287 26.0309 48.2625 26.1195 48.0852 26.2971L48.0851 26.2964Z" fill="white"/>
<defs>
<filter id="filter0_d_206_344" x="0.604939" y="0" width="93.3951" height="93.3951" filterUnits="userSpaceOnUse" color-interpolation-filters="sRGB">
<feFlood flood-opacity="0" result="BackgroundImageFix"/>
<feColorMatrix in="SourceAlpha" type="matrix" values="0 0 0 0 0 0 0 0 0 0 0 0 0 0 0 0 0 0 127 0" result="hardAlpha"/>
<feOffset dx="-4.19753" dy="4.19753"/>
<feGaussianBlur stdDeviation="2.09877"/>
<feComposite in2="hardAlpha" operator="out"/>
<feColorMatrix type="matrix" values="0 0 0 0 0 0 0 0 0 0 0 0 0 0 0 0 0 0 0.15 0"/>
<feBlend mode="normal" in2="BackgroundImageFix" result="effect1_dropShadow_206_344"/>
<feBlend mode="normal" in="SourceGraphic" in2="effect1_dropShadow_206_344" result="shape"/>
</filter>
</defs>
</svg>
