<svg width="20" height="20" viewBox="0 0 20 20" fill="none" xmlns="http://www.w3.org/2000/svg">
<path d="M7.13472 18.7733V15.7156C7.13472 14.9351 7.77211 14.3023 8.55837 14.3023H11.4325C11.8101 14.3023 12.1722 14.4512 12.4392 14.7163C12.7062 14.9813 12.8562 15.3408 12.8562 15.7156V18.7733C12.8538 19.0979 12.982 19.4099 13.2123 19.6402C13.4426 19.8705 13.756 20 14.0829 20H16.0438C16.9596 20.0024 17.8387 19.6429 18.4871 19.0008C19.1355 18.3588 19.4999 17.487 19.4999 16.5778V7.86687C19.4999 7.13247 19.172 6.43585 18.6046 5.96468L11.934 0.675877C10.7736 -0.251431 9.11105 -0.22149 7.98533 0.746987L1.46695 5.96468C0.87268 6.42196 0.517491 7.12064 0.499939 7.86687V16.5689C0.499939 18.4639 2.04732 20 3.95611 20L5.87223 20C6.55117 20 7.10294 19.4562 7.10786 18.7822L7.13472 18.7733Z" fill="#1D1D1B"/>
</svg>
