<svg width="26" height="25" viewBox="0 0 26 25" fill="none" xmlns="http://www.w3.org/2000/svg">
<path d="M20.7248 20.3924L20.7632 20.4302L20.8053 20.4639L23.8945 22.9385L23.9564 22.9881C24.0715 23.2001 24.0398 23.4716 23.8612 23.6507C23.6515 23.861 23.3163 23.8667 23.0998 23.6677L20.5635 20.783L20.5635 20.783L20.5581 20.7769L20.4884 20.6989C20.461 20.6587 20.4458 20.6105 20.4458 20.5605C20.4458 20.4962 20.4709 20.4352 20.5145 20.3901C20.574 20.3339 20.6662 20.3346 20.7248 20.3924ZM11.2595 1.90886C13.7315 1.90886 16.1029 2.8938 17.8519 4.64802C19.6009 6.40235 20.5841 8.7824 20.5841 11.2648C20.5841 16.4348 16.4064 20.6206 11.2595 20.6206C6.11271 20.6206 1.93499 16.4348 1.93499 11.2648C1.93499 6.09465 6.11271 1.90886 11.2595 1.90886Z" stroke="#3B9778" stroke-width="2.09605"/>
</svg>
