<svg width="240" height="178" viewBox="0 0 240 178" fill="none" xmlns="http://www.w3.org/2000/svg">
<path d="M5.21739 175.304L3.05628 173.143C1.09938 171.186 0 168.532 0 165.765V20C0 8.95431 8.9543 0 20 0H220C231.046 0 240 8.95428 240 20V170.087C240 173.938 235.344 175.866 232.621 173.143C230.934 171.455 228.197 171.455 226.509 173.143L224.348 175.304C221.466 178.186 216.795 178.186 213.913 175.304C211.032 172.423 206.36 172.423 203.478 175.304C200.597 178.186 195.925 178.186 193.043 175.304C190.162 172.423 185.49 172.423 182.609 175.304C179.727 178.186 175.055 178.186 172.174 175.304C169.292 172.423 164.621 172.423 161.739 175.304C158.858 178.186 154.186 178.186 151.304 175.304C148.423 172.423 143.751 172.423 140.87 175.304C137.988 178.186 133.316 178.186 130.435 175.304C127.553 172.423 122.881 172.423 120 175.304C117.119 178.186 112.447 178.186 109.565 175.304C106.684 172.423 102.012 172.423 99.1304 175.304C96.2489 178.186 91.5771 178.186 88.6956 175.304C85.8142 172.423 81.1423 172.423 78.2609 175.304C75.3794 178.186 70.7076 178.186 67.8261 175.304C64.9446 172.423 60.2728 172.423 57.3913 175.304C54.5098 178.186 49.838 178.186 46.9565 175.304C44.075 172.423 39.4032 172.423 36.5217 175.304C33.6403 178.186 28.9684 178.186 26.087 175.304C23.2055 172.423 18.5337 172.423 15.6522 175.304C12.7707 178.186 8.09888 178.186 5.21739 175.304Z" fill="#3A9778"/>
</svg>
