<svg width="16" height="20" viewBox="0 0 16 20" fill="none" xmlns="http://www.w3.org/2000/svg">
<path opacity="0.35" d="M7.14228 0.0584733C5.44423 0.217357 3.84264 0.920153 2.57608 2.06213C1.30952 3.20411 0.445282 4.72465 0.11226 6.39724C-0.200405 8.17674 0.145214 10.0092 1.08456 11.5523L1.61181 12.431C2.74812 14.3019 4.07097 16.0527 5.56053 17.6568L7.27113 19.5199C7.42883 19.7761 7.70835 19.932 8.00923 19.932C8.31013 19.932 8.58946 19.776 8.74733 19.5199L10.4579 17.6686C11.9449 16.0543 13.2678 14.296 14.4065 12.4197L14.8282 11.7167H14.8284C15.5969 10.5218 16.0039 9.13026 16 7.70955C15.9472 5.48048 14.9545 3.37775 13.2672 1.92032C11.5799 0.46295 9.3552 -0.213388 7.14205 0.0584733H7.14228ZM8.04438 10.6035C7.29217 10.5757 6.58128 10.2524 6.06603 9.70376C5.55073 9.15512 5.2726 8.42545 5.29203 7.67304C5.31125 6.92063 5.62666 6.20603 6.16943 5.68465C6.71234 5.16327 7.4389 4.8771 8.19156 4.8881C8.94418 4.89908 9.66209 5.20625 10.1895 5.7433C10.717 6.28034 11.0114 7.00358 11.0088 7.75639C10.9933 8.52709 10.6724 9.26007 10.1164 9.794C9.56051 10.3281 8.81512 10.6192 8.04443 10.6035H8.04438Z" fill="black"/>
</svg>
